<svg version="1.0" xmlns="http://www.w3.org/2000/svg"
     width="92.000000pt" height="58.000000pt" viewBox="0 0 92.000000 58.000000"
     preserveAspectRatio="xMidYMid meet">
    <g transform="translate(0.000000,58.000000) scale(0.100000,-0.100000)"
       fill="#000000" stroke="none">
        <path d="M143 302 c-73 -153 -133 -281 -133 -285 0 -4 144 -7 320 -7 176 0
320 2 320 4 0 5 -370 566 -373 566 -1 0 -62 -125 -134 -278z"/>
        <path d="M574 389 c-44 -33 -79 -66 -79 -73 0 -6 43 -78 95 -158 l95 -147 113
-1 114 0 -19 32 c-10 18 -66 117 -123 221 -58 103 -107 187 -111 187 -3 0 -42
-27 -85 -61z"/>
    </g>
<style>
        path { fill: #000; }
        @media (prefers-color-scheme: dark) {
            path { fill: #FFF; }
        }
    </style>
</svg>
